# xmcd CD database file
#
# Track frame offsets:
#	150
#	15470
#	30619
#	46504
#	57478
#	70630
#	88042
#	101401
#	112871
#	127662
#	142314
#	158159
#	172550
#	187540
#
# Disc length: 2702 seconds
#
# Revision: 0
# Processed by: cddbd v1.5.1PL2 Copyright (c) Steve Scherf et al.
# Submitted via: CDex 1.50
#
DISCID=9a0a8c0e
DTITLE=Karen Lynne - Changes
DYEAR=2001
DGENRE=Country
TTITLE0=We Should Only Have Time For Love
TTITLE1=The Circle Is Small
TTITLE2=When I Close My Eyes
TTITLE3=Roses In The Snow
TTITLE4=It's Over
TTITLE5=There Is Reason
TTITLE6=Changes
TTITLE7=Jealous
TTITLE8=The Healing Kind
TTITLE9=Blue Mountain Rain
TTITLE10=It Wasn't Me
TTITLE11=Loving Arms
TTITLE12=Once More
TTITLE13=We Should Only Have Time For Love (Radio Edit)
EXTD=YEAR: 2001
EXTT0=
EXTT1=
EXTT2=
EXTT3=
EXTT4=
EXTT5=
EXTT6=
EXTT7=
EXTT8=
EXTT9=
EXTT10=
EXTT11=
EXTT12=
EXTT13=
PLAYORDER=
